<svg xmlns="http://www.w3.org/2000/svg" xml:space="preserve" id="Layer_1" x="0" y="0" style="enable-background:new 0 0 142 54" version="1.1" viewBox="0 0 142 54"><style>.st0{fill-rule:evenodd;clip-rule:evenodd}.st4{enable-background:new}</style><g id="Symbols"><g id="Quote-Car" transform="translate(-1627 -443)"><g id="Group-4" transform="translate(1627.298 443.5)"><g id="Group-16"><path id="Fill-1" d="M21.3 23.7c-.1-.1-.3-.2-.4-.3.2-.7.5-1.3.5-1.9.1-1.4-.5-2.4-1.6-3.2-1.9-1.3-3.9-2.7-5.8-4-1.1-.7-1.9-1.6-2.4-2.8-.9-2-.8-4.1.4-5.9 1.3-1.9 2.7-3.7 4.2-5.6.2.1.4.2.5.4-.4.6-.6 1.3-.2 1.9.2.4.6.8.9 1l6.9 4.8c1.5 1 2.6 2.4 2.9 4.3.3 1.6.1 3.2-.9 4.5-1.6 2.3-3.3 4.4-5 6.7.1 0 .1.1 0 .1" class="st0"/><path id="Fill-3" d="M11.9 15c.2.2.4.3.6.4-.3 1-.2 1.3.7 1.9 1.5 1 2.9 2 4.4 3 1.1.8 1.9 1.8 2 3.2.1 1-.1 1.9-.7 2.8-.9 1.2-1.8 2.4-2.8 3.7-.2-.2-.4-.3-.6-.4.3-1 .2-1.3-.7-1.9-1.5-1-2.9-2-4.4-3-1.1-.8-1.9-1.8-2-3.2-.1-1 .1-1.9.6-2.8 1-1.2 2-2.4 2.9-3.7" class="st0"/><path id="Fill-5" d="M2.5 43.2h3.1c.2 0 .5-.1.7-.2.7-.4.7-1.5 0-1.9-.2-.1-.5-.2-.8-.3H2.7c-.1 0-.3.2-.3.2.1.8.1 1.5.1 2.2zm0 4.6c1.3 0 2.5.1 3.8 0 .9-.1 1.2-.6 1.2-1.3 0-.6-.4-1.1-1.2-1.1-1.2-.1-2.5 0-3.7-.1l-.1.1v2.4zM0 50V38.7h5.5c.7 0 1.3.1 2 .3 1.1.4 1.8 1.1 1.9 2.3.1 1.1-.4 2-1.3 2.6l-.2.2c.2.1.5.2.7.3 1 .5 1.5 1.4 1.5 2.5 0 1.2-.5 2-1.6 2.5-.8.4-1.6.6-2.4.6H0z" class="st0"/><g id="Group-9" transform="translate(11.291 38.654)"><defs><filter id="Adobe_OpacityMaskFilter" width="10.1" height="11.3" x="0" y="0" filterUnits="userSpaceOnUse"><feColorMatrix values="1 0 0 0 0 0 1 0 0 0 0 0 1 0 0 0 0 0 1 0"/></filter></defs><mask id="mask-2_00000110459746737766805190000007743136942535505297_" width="10.1" height="11.3" x="0" y="0" maskUnits="userSpaceOnUse"><g style="filter:url(#Adobe_OpacityMaskFilter)"><path id="path-1_00000089567549848795749090000008766319289958198666_" d="M0 0h10.1v11.3H0z" style="fill-rule:evenodd;clip-rule:evenodd;fill:#fff"/></g></mask><path id="Fill-7" d="M2.5 4.6h2.8c.4 0 .7-.1 1-.3.6-.3.8-1.1.3-1.6-.2-.2-.5-.4-.8-.4-1.1-.1-2.2 0-3.3 0v2.3zm0 4.6h3.8c.2 0 .4-.1.7-.2.3-.3.5-.6.5-1 0-.7-.4-1.2-1.2-1.3-1.2-.1-2.4 0-3.6-.1-.1 0-.2.1-.2.2v2.4zM0 0h5.4c.7 0 1.5.1 2.2.4 1.1.4 1.7 1.2 1.8 2.3.1 1.1-.3 1.9-1.3 2.5-.1.1-.1.2-.2.2.3.1.5.2.8.4 1.9 1 1.9 3.7.1 4.8-.8.5-1.8.7-2.7.7h-6V0z" style="mask:url(#mask-2_00000110459746737766805190000007743136942535505297_);fill-rule:evenodd;clip-rule:evenodd"/></g><path id="Fill-10" d="M25 43.2h3.1c.2 0 .4-.1.6-.2.4-.2.7-.5.7-1s-.2-.8-.7-1c-.1 0-.2-.1-.3-.1-1.1 0-2.2-.1-3.4-.1v2.4zm0 4.6h3.7c.2 0 .5-.1.7-.2.4-.2.6-.5.6-1 0-.7-.4-1.2-1.3-1.3-1.1-.1-2.3-.1-3.4-.1-.1 0-.3.2-.3.2v2.4zm5.4-3.7c.3.1.5.2.7.3 1 .5 1.6 1.4 1.6 2.5 0 1.2-.5 2.1-1.6 2.5-.7.3-1.5.5-2.2.5-2.1.1-4.1 0-6.2 0V38.7h5.5c.7 0 1.5.2 2.2.4 1 .4 1.6 1.2 1.7 2.3.1 1.1-.3 1.9-1.3 2.5-.3 0-.3.1-.4.2z" class="st0"/><path id="Fill-12" d="M5.5 33.6c.2-.7.5-1.4.7-2.1 0-.1.1-.1.2-.1H26c.3 0 .5.1.6.4l.6 1.8h-5c-.3 0-.4.1-.5.4-.3.8-.5 1.7-.8 2.5-.1.2-.2.3-.4.3h-8.2c-.3 0-.4-.1-.4-.3-.3-.8-.6-1.7-.8-2.5-.1-.3-.2-.4-.5-.3-1.8-.1-3.4-.1-5.1-.1" class="st0"/><path id="Fill-14" d="m33.6 49.5-.3-.3c-.1.1-.1.2-.2.3l-.1-.1V49c0-.1.1-.3.1-.3.2 0 .3 0 .5.1.1 0 0 .2 0 .3.1.1.1.3 0 .4" class="st0"/></g><g class="st4"><path d="M52.7 24.3c-.2 0-.4 0-.5.1-.3.1-.5.3-.6.5l-1.5-.1.6-4.7h4.7v1.4h-3.5l-.3 1.9c.3-.2.5-.3.6-.3.2-.1.5-.1.9-.1.7 0 1.3.2 1.8.7s.8 1.2.8 2.1c0 .8-.3 1.5-.8 2.1s-1.3.9-2.3.9c-.8 0-1.5-.2-2-.7s-.8-1-.9-1.8h1.7c.1.4.2.6.4.8s.5.3.8.3c.4 0 .7-.1.9-.4s.3-.7.3-1.1c0-.4-.1-.8-.3-1.1s-.3-.5-.8-.5zM56.5 24.4h3.4V26h-3.4v-1.6zM64.3 27.3c.4 0 .8 0 1-.1.5-.2.8-.5.8-1 0-.3-.1-.5-.4-.7-.2-.2-.6-.3-1.2-.4l-.9-.2c-.9-.2-1.5-.4-1.9-.7-.6-.4-.9-1-.9-1.9 0-.8.3-1.4.8-1.9s1.4-.8 2.5-.8c.9 0 1.7.2 2.3.7s1 1.2 1 2.1h-1.7c0-.5-.3-.9-.7-1.1-.3-.1-.6-.2-1-.2-.5 0-.8.1-1.1.3s-.4.4-.4.8c0 .3.1.5.4.7.2.1.6.2 1.1.4l1.5.4c.7.2 1.1.4 1.5.6.5.4.8 1 .8 1.8s-.3 1.4-.9 2-1.5.8-2.6.8-2-.3-2.7-.8-1-1.2-1-2.1h1.7c.1.4.2.7.3.9.5.2 1 .4 1.7.4zM71.9 27.3v1.2h-.8c-.8 0-1.3-.1-1.6-.4-.2-.2-.3-.5-.3-.9v-3.9h-.9v-1.2h.9v-1.8h1.7v1.8h1v1.2h-1v3.4c0 .3 0 .4.1.5s.3.1.6.1H71.9zM73.2 22.8c.4-.6 1.2-.8 2.3-.8.7 0 1.3.1 1.9.4s.8.8.8 1.6V27.6c0 .2 0 .4.1.4s.1.1.2.2v.2h-1.8c-.1-.1-.1-.2-.1-.4v-.4c-.2.2-.5.5-.8.6-.4.2-.8.3-1.2.3-.6 0-1.1-.2-1.4-.5s-.6-.8-.6-1.4c0-.8.3-1.4.9-1.7.3-.2.8-.3 1.5-.4l.6-.1c.3 0 .5-.1.7-.1.2-.1.4-.3.4-.5 0-.3-.1-.4-.3-.5s-.4-.1-.8-.1-.7.1-.8.3c-.1.1-.2.3-.2.6H73c-.2-.5 0-.9.2-1.3zm1.3 4.5c.2.1.3.2.6.2.4 0 .7-.1 1-.3s.5-.6.5-1.2v-.6c-.1.1-.2.1-.3.2s-.3.1-.4.1l-.4.1c-.4.1-.6.1-.8.2-.3.2-.4.4-.4.7-.1.3 0 .5.2.6zM82.9 23.7c-.7 0-1.1.2-1.4.7-.1.2-.2.6-.2 1.1v3.1h-1.7v-6.4h1.6v1.1c.3-.4.5-.7.7-.9.3-.3.7-.4 1.2-.4h.2v1.7h-.4z"/></g><g class="st4"><path d="M49.8 35.9h1.9l1.9 6.6 1.9-6.6h1.9l-2.9 8.6h-1.7l-3-8.6zM63.1 42.6c0 .4-.2.8-.6 1.2-.5.6-1.3.9-2.3.9-.8 0-1.5-.3-2.2-.8s-.9-1.4-.9-2.6c0-1.1.3-2 .8-2.5s1.3-.9 2.2-.9c.5 0 1 .1 1.4.3s.8.5 1.1.9c.2.4.4.8.5 1.3 0 .3.1.7.1 1.3h-4.4c0 .6.2 1.1.6 1.3.2.2.5.2.8.2.3 0 .6-.1.8-.3.1-.1.2-.3.3-.4h1.8zm-1.6-1.9c0-.4-.2-.8-.4-1s-.5-.3-.9-.3-.7.1-.9.4-.3.6-.4 1h2.6zM67.6 39.7c-.7 0-1.1.2-1.4.7-.1.2-.2.6-.2 1.1v3.1h-1.7v-6.4h1.6v1.1c.3-.4.5-.7.7-.9.3-.3.7-.4 1.2-.4h.2v1.7h-.4zM70.7 35.8v1.5H69v-1.5h1.7zm0 2.3v6.4H69v-6.4h1.7zM75.3 35.8v1.4h-.5c-.2 0-.4 0-.5.1s-.1.2-.1.3v.5h1.1v1.2h-1.1v5.2h-1.7v-5.2h-.9v-1.2h.9v-.4c0-.7.1-1.2.3-1.4.2-.4.8-.6 1.8-.6h.3c.1 0 .3.1.4.1zM78.1 35.8v1.5h-1.7v-1.5h1.7zm0 2.3v6.4h-1.7v-6.4h1.7zM85.1 42.6c0 .4-.2.8-.6 1.2-.5.6-1.3.9-2.3.9-.8 0-1.5-.3-2.2-.8s-.9-1.4-.9-2.6c0-1.1.3-2 .8-2.5s1.3-.9 2.2-.9c.5 0 1 .1 1.4.3s.8.5 1.1.9c.2.4.4.8.5 1.3 0 .3.1.7.1 1.3h-4.4c0 .6.2 1.1.6 1.3.2.2.5.2.8.2.3 0 .6-.1.8-.3.1-.1.2-.3.3-.4h1.8zm-1.6-1.9c0-.4-.2-.8-.4-1s-.5-.3-.9-.3-.7.1-.9.4-.3.6-.4 1h2.6zM92.2 35.9v8.6h-1.6v-.9c-.2.4-.5.7-.8.8s-.7.3-1.1.3c-.7 0-1.4-.3-1.9-.9s-.8-1.4-.8-2.3c0-1.1.3-1.9.8-2.6s1.2-.9 2-.9c.4 0 .7.1 1 .3s.5.4.7.7v-3h1.7zm-4.5 5.4c0 .6.1 1.1.4 1.4.2.4.6.5 1.1.5s.8-.2 1.1-.5.4-.8.4-1.4c0-.8-.2-1.3-.6-1.7-.2-.2-.5-.3-.8-.3-.5 0-.8.2-1.1.6s-.5.9-.5 1.4zM100.8 41.1H99v3.4h-1.8v-8.6h4.2c.6 0 1.1.1 1.4.2s.6.3.8.6c.2.2.3.5.4.7s.2.6.2.9c0 .4-.1.8-.3 1.2s-.5.7-1 .8c.4.2.7.4.8.7s.2.7.2 1.4v1.4c0 .2.2.4.3.5v.2h-2c-.1-.2-.1-.3-.1-.5s-.1-.5-.1-.7v-.8c0-.6-.1-.9-.3-1.1s-.3-.3-.9-.3zm1.1-1.6c.4-.2.5-.5.5-1s-.2-.9-.5-1.1c-.2-.1-.5-.2-.9-.2h-2v2.3h2c.4.2.7.1.9 0zM111.2 42.6c0 .4-.2.8-.6 1.2-.5.6-1.3.9-2.3.9-.8 0-1.5-.3-2.2-.8s-.9-1.4-.9-2.6c0-1.1.3-2 .8-2.5s1.3-.9 2.2-.9c.5 0 1 .1 1.4.3s.8.5 1.1.9c.2.4.4.8.5 1.3 0 .3.1.7.1 1.3h-4.4c0 .6.2 1.1.6 1.3.2.2.5.2.8.2.3 0 .6-.1.8-.3.1-.1.2-.3.3-.4h1.8zm-1.7-1.9c0-.4-.2-.8-.4-1s-.5-.3-.9-.3-.7.1-.9.4-.3.6-.4 1h2.6zM111.7 38.1h1.9l1.3 4.7 1.4-4.7h1.8l-2.3 6.4H114l-2.3-6.4zM120.7 35.8v1.5H119v-1.5h1.7zm0 2.3v6.4H119v-6.4h1.7zM127.8 42.6c0 .4-.2.8-.6 1.2-.5.6-1.3.9-2.3.9-.8 0-1.5-.3-2.2-.8s-.9-1.4-.9-2.6c0-1.1.3-2 .8-2.5s1.3-.9 2.2-.9c.5 0 1 .1 1.4.3s.8.5 1.1.9c.2.4.4.8.5 1.3 0 .3.1.7.1 1.3h-4.4c0 .6.2 1.1.6 1.3.2.2.5.2.8.2.3 0 .6-.1.8-.3.1-.1.2-.3.3-.4h1.8zm-1.6-1.9c0-.4-.2-.8-.4-1s-.5-.3-.9-.3-.7.1-.9.4-.3.6-.4 1h2.6zM133.9 44.5l-1-4.7-1 4.7h-1.7l-1.8-6.4h1.8l1 4.6.9-4.6h1.7l1 4.6 1-4.6h1.7l-1.9 6.4h-1.7z"/></g><path id="Star" d="m122.6 13-4.1 2.2.7-4.7-3.3-3.2 4.6-.7 2.1-4.2 2.1 4.2 4.6.7-3.4 3.2.8 4.7z" class="st0"/><path id="Star-Copy" d="m105.6 13-4.1 2.2.7-4.7-3.3-3.2 4.6-.7 2.1-4.2 2.1 4.2 4.6.7-3.4 3.2.8 4.7z" class="st0"/><path id="Star-Copy-2" d="m88.6 13-4.1 2.2.7-4.7-3.3-3.2 4.6-.7 2.1-4.2 2.1 4.2 4.6.7-3.4 3.2.8 4.7z" class="st0"/><path id="Star-Copy-3" d="m71.6 13-4.1 2.2.7-4.7-3.3-3.2 4.6-.7 2.1-4.2 2.1 4.2 4.6.7-3.4 3.2.8 4.7z" class="st0"/><path id="Star-Copy-4" d="m54.6 13-4.1 2.2.7-4.7-3.3-3.2 4.6-.7 2.1-4.2 2.1 4.2 4.6.7-3.4 3.2.8 4.7z" class="st0"/></g></g></g></svg>