<svg width="800" height="800" viewBox="0 0 800 800" fill="none" xmlns="http://www.w3.org/2000/svg">
<path d="M325 275C340 275 350 265 350 250C350 235 340 225 325 225C200 225 100 325 100 450C100 520 155 575 225 575C295 575 350 520 350 450C350 380 295 325 225 325C217.5 325 207.5 325 200 327.5C232.5 295 275 275 325 275Z" fill="white"/>
<path d="M575 325C567.5 325 557.5 325 550 327.5C582.5 295 625 275 675 275C690 275 700 265 700 250C700 235 690 225 675 225C550 225 450 325 450 450C450 520 505 575 575 575C645 575 700 520 700 450C700 380 645 325 575 325Z" fill="white"/>
</svg>
