<svg width="250" height="53" viewBox="0 0 250 53" fill="none" xmlns="http://www.w3.org/2000/svg">
<rect width="52" height="1" transform="matrix(-0.00331612 -0.999995 -0.999995 0.00331612 1.17242 52.8203)" fill="#411921"/>
<rect width="52" height="1" transform="matrix(-0.00331612 -0.999995 -0.999995 0.00331612 127.172 52.4023)" fill="#411921"/>
<rect width="52" height="1" transform="matrix(-0.00331612 -0.999995 -0.999995 0.00331612 64.1721 52.6133)" fill="#411921"/>
<rect width="52" height="1" transform="matrix(-0.00331612 -0.999995 -0.999995 0.00331612 190.171 52.1953)" fill="#411921"/>
<rect width="52" height="1" transform="matrix(-0.00331612 -0.999995 -0.999995 0.00331612 32.1722 52.7188)" fill="#411921"/>
<rect width="52" height="1" transform="matrix(-0.00331612 -0.999995 -0.999995 0.00331612 158.172 52.3008)" fill="#411921"/>
<rect width="52" height="1" transform="matrix(-0.00331612 -0.999995 -0.999995 0.00331612 95.1719 52.5078)" fill="#411921"/>
<rect width="52" height="1" transform="matrix(-0.00331612 -0.999995 -0.999995 0.00331612 221.171 52.0898)" fill="#411921"/>
<rect width="52" height="1" transform="matrix(-0.00331612 -0.999995 -0.999995 0.00331612 16.1724 52.7695)" fill="#411921"/>
<rect width="52" height="1" transform="matrix(-0.00331612 -0.999995 -0.999995 0.00331612 142.172 52.3516)" fill="#411921"/>
<rect width="52" height="1" transform="matrix(-0.00331612 -0.999995 -0.999995 0.00331612 79.172 52.5625)" fill="#411921"/>
<rect width="52" height="1" transform="matrix(-0.00331612 -0.999995 -0.999995 0.00331612 205.171 52.1445)" fill="#411921"/>
<rect width="52" height="1" transform="matrix(-0.00331612 -0.999995 -0.999995 0.00331612 48.1722 52.6641)" fill="#411921"/>
<rect width="52" height="1" transform="matrix(-0.00331612 -0.999995 -0.999995 0.00331612 174.171 52.2461)" fill="#411921"/>
<rect width="52" height="1" transform="matrix(-0.00331612 -0.999995 -0.999995 0.00331612 111.172 52.457)" fill="#411921"/>
<rect width="52" height="1" transform="matrix(-0.00331612 -0.999995 -0.999995 0.00331612 237.171 52.0391)" fill="#411921"/>
<rect width="52" height="1" transform="matrix(-0.00331612 -0.999995 -0.999995 0.00331612 4.17242 52.8125)" fill="#411921"/>
<rect width="52" height="1" transform="matrix(-0.00331612 -0.999995 -0.999995 0.00331612 130.172 52.3945)" fill="#411921"/>
<rect width="52" height="1" transform="matrix(-0.00331612 -0.999995 -0.999995 0.00331612 67.1721 52.6016)" fill="#411921"/>
<rect width="52" height="1" transform="matrix(-0.00331612 -0.999995 -0.999995 0.00331612 193.171 52.1836)" fill="#411921"/>
<rect width="52" height="1" transform="matrix(-0.00331612 -0.999995 -0.999995 0.00331612 36.1722 52.7031)" fill="#411921"/>
<rect width="52" height="1" transform="matrix(-0.00331612 -0.999995 -0.999995 0.00331612 162.172 52.2852)" fill="#411921"/>
<rect width="52" height="1" transform="matrix(-0.00331612 -0.999995 -0.999995 0.00331612 99.1719 52.4961)" fill="#411921"/>
<rect width="52" height="1" transform="matrix(-0.00331612 -0.999995 -0.999995 0.00331612 225.171 52.0781)" fill="#411921"/>
<rect width="52" height="1" transform="matrix(-0.00331612 -0.999995 -0.999995 0.00331612 20.1723 52.7578)" fill="#411921"/>
<rect width="52" height="1" transform="matrix(-0.00331612 -0.999995 -0.999995 0.00331612 146.172 52.3398)" fill="#411921"/>
<rect width="52" height="1" transform="matrix(-0.00331612 -0.999995 -0.999995 0.00331612 83.172 52.5508)" fill="#411921"/>
<rect width="52" height="1" transform="matrix(-0.00331612 -0.999995 -0.999995 0.00331612 209.171 52.1328)" fill="#411921"/>
<rect width="52" height="1" transform="matrix(-0.00331612 -0.999995 -0.999995 0.00331612 52.1721 52.6523)" fill="#411921"/>
<rect width="52" height="1" transform="matrix(-0.00331612 -0.999995 -0.999995 0.00331612 178.171 52.2344)" fill="#411921"/>
<rect width="52" height="1" transform="matrix(-0.00331612 -0.999995 -0.999995 0.00331612 115.172 52.4414)" fill="#411921"/>
<rect width="52" height="1" transform="matrix(-0.00331612 -0.999995 -0.999995 0.00331612 241.171 52.0234)" fill="#411921"/>
<rect width="52" height="1" transform="matrix(-0.00331612 -0.999995 -0.999995 0.00331612 8.17236 52.7969)" fill="#411921"/>
<rect width="52" height="1" transform="matrix(-0.00331612 -0.999995 -0.999995 0.00331612 134.172 52.3789)" fill="#411921"/>
<rect width="52" height="1" transform="matrix(-0.00331612 -0.999995 -0.999995 0.00331612 71.1721 52.5898)" fill="#411921"/>
<rect width="52" height="1" transform="matrix(-0.00331612 -0.999995 -0.999995 0.00331612 197.171 52.1719)" fill="#411921"/>
<rect width="52" height="1" transform="matrix(-0.00331612 -0.999995 -0.999995 0.00331612 40.1722 52.6914)" fill="#411921"/>
<rect width="52" height="1" transform="matrix(-0.00331612 -0.999995 -0.999995 0.00331612 166.172 52.2734)" fill="#411921"/>
<rect width="52" height="1" transform="matrix(-0.00331612 -0.999995 -0.999995 0.00331612 103.172 52.4844)" fill="#411921"/>
<rect width="52" height="1" transform="matrix(-0.00331612 -0.999995 -0.999995 0.00331612 229.171 52.0664)" fill="#411921"/>
<rect width="52" height="1" transform="matrix(-0.00331612 -0.999995 -0.999995 0.00331612 24.1723 52.7461)" fill="#411921"/>
<rect width="52" height="1" transform="matrix(-0.00331612 -0.999995 -0.999995 0.00331612 150.172 52.3281)" fill="#411921"/>
<rect width="52" height="1" transform="matrix(-0.00331612 -0.999995 -0.999995 0.00331612 87.1719 52.5352)" fill="#411921"/>
<rect width="52" height="1" transform="matrix(-0.00331612 -0.999995 -0.999995 0.00331612 213.171 52.1172)" fill="#411921"/>
<rect width="52" height="1" transform="matrix(-0.00331612 -0.999995 -0.999995 0.00331612 56.1721 52.6367)" fill="#411921"/>
<rect width="52" height="1" transform="matrix(-0.00331612 -0.999995 -0.999995 0.00331612 182.171 52.2188)" fill="#411921"/>
<rect width="52" height="1" transform="matrix(-0.00331612 -0.999995 -0.999995 0.00331612 119.172 52.4297)" fill="#411921"/>
<rect width="52" height="1" transform="matrix(-0.00331612 -0.999995 -0.999995 0.00331612 245.171 52.0117)" fill="#411921"/>
<rect width="52" height="1" transform="matrix(-0.00331612 -0.999995 -0.999995 0.00331612 12.1724 52.7852)" fill="#411921"/>
<rect width="52" height="1" transform="matrix(-0.00331612 -0.999995 -0.999995 0.00331612 138.172 52.3672)" fill="#411921"/>
<rect width="52" height="1" transform="matrix(-0.00331612 -0.999995 -0.999995 0.00331612 75.172 52.5742)" fill="#411921"/>
<rect width="52" height="1" transform="matrix(-0.00331612 -0.999995 -0.999995 0.00331612 201.171 52.1562)" fill="#411921"/>
<rect width="52" height="1" transform="matrix(-0.00331612 -0.999995 -0.999995 0.00331612 44.1722 52.6797)" fill="#411921"/>
<rect width="52" height="1" transform="matrix(-0.00331612 -0.999995 -0.999995 0.00331612 170.172 52.2617)" fill="#411921"/>
<rect width="52" height="1" transform="matrix(-0.00331612 -0.999995 -0.999995 0.00331612 107.172 52.4688)" fill="#411921"/>
<rect width="52" height="1" transform="matrix(-0.00331612 -0.999995 -0.999995 0.00331612 233.171 52.0508)" fill="#411921"/>
<rect width="52" height="1" transform="matrix(-0.00331612 -0.999995 -0.999995 0.00331612 28.1722 52.7305)" fill="#411921"/>
<rect width="52" height="1" transform="matrix(-0.00331612 -0.999995 -0.999995 0.00331612 154.172 52.3125)" fill="#411921"/>
<rect width="52" height="1" transform="matrix(-0.00331612 -0.999995 -0.999995 0.00331612 91.1719 52.5234)" fill="#411921"/>
<rect width="52" height="1" transform="matrix(-0.00331612 -0.999995 -0.999995 0.00331612 217.171 52.1055)" fill="#411921"/>
<rect width="52" height="1" transform="matrix(-0.00331612 -0.999995 -0.999995 0.00331612 60.1721 52.625)" fill="#411921"/>
<rect width="52" height="1" transform="matrix(-0.00331612 -0.999995 -0.999995 0.00331612 186.171 52.207)" fill="#411921"/>
<rect width="52" height="1" transform="matrix(-0.00331612 -0.999995 -0.999995 0.00331612 123.172 52.418)" fill="#411921"/>
<rect width="52" height="1" transform="matrix(-0.00331612 -0.999995 -0.999995 0.00331612 249.171 52)" fill="#411921"/>
</svg>
